<svg width="18" height="10" viewBox="0 0 18 10" fill="none" xmlns="http://www.w3.org/2000/svg">
<path d="M2.25001 5C2.25001 3.575 3.40834 2.41666 4.83334 2.41666H8.16667V0.833328H4.83334C2.53334 0.833328 0.666672 2.7 0.666672 5C0.666672 7.3 2.53334 9.16666 4.83334 9.16666H8.16667V7.58333H4.83334C3.40834 7.58333 2.25001 6.425 2.25001 5ZM5.66667 5.83333H12.3333V4.16666H5.66667V5.83333ZM13.1667 0.833328H9.83334V2.41666H13.1667C14.5917 2.41666 15.75 3.575 15.75 5C15.75 6.425 14.5917 7.58333 13.1667 7.58333H9.83334V9.16666H13.1667C15.4667 9.16666 17.3333 7.3 17.3333 5C17.3333 2.7 15.4667 0.833328 13.1667 0.833328Z" fill="#949494"/>
</svg>
