<svg width="20" height="18" viewBox="0 0 20 18" fill="none" xmlns="http://www.w3.org/2000/svg">
<path d="M17.9441 4.92633C17.9568 5.10399 17.9568 5.28168 17.9568 5.45934C17.9568 10.8781 13.8325 17.1218 6.29441 17.1218C3.97207 17.1218 1.81473 16.4491 0 15.2817C0.329961 15.3197 0.647187 15.3324 0.989844 15.3324C2.90605 15.3324 4.67004 14.6852 6.07867 13.5812C4.27664 13.5431 2.76648 12.3629 2.24617 10.7385C2.5 10.7766 2.75379 10.802 3.02031 10.802C3.38832 10.802 3.75637 10.7512 4.09898 10.6624C2.22082 10.2816 0.812148 8.63192 0.812148 6.63953V6.58879C1.35781 6.89336 1.99238 7.08371 2.66492 7.10906C1.56086 6.37301 0.837539 5.11668 0.837539 3.69535C0.837539 2.93395 1.04055 2.23598 1.3959 1.62684C3.41367 4.11414 6.44668 5.73848 9.84766 5.91617C9.78422 5.6116 9.74613 5.29438 9.74613 4.97711C9.74613 2.71821 11.5736 0.878128 13.8451 0.878128C15.0253 0.878128 16.0913 1.37305 16.84 2.17254C17.7664 1.99489 18.6547 1.65223 19.4416 1.1827C19.137 2.1345 18.4898 2.93399 17.6395 3.44157C18.4644 3.35278 19.2639 3.1243 19.9999 2.80707C19.4416 3.61922 18.7436 4.34254 17.9441 4.92633Z" fill="#949494"/>
</svg>
