<svg width="20" height="16" viewBox="0 0 20 16" fill="none" xmlns="http://www.w3.org/2000/svg">
<path d="M19.0853 2.84699C18.8672 1.92316 18.2246 1.19559 17.4087 0.948672C15.9299 0.5 10 0.5 10 0.5C10 0.5 4.07016 0.5 2.5913 0.948672C1.77543 1.19563 1.13286 1.92316 0.914774 2.84699C0.518524 4.52148 0.518524 8.01516 0.518524 8.01516C0.518524 8.01516 0.518524 11.5088 0.914774 13.1833C1.13286 14.1071 1.77543 14.8044 2.5913 15.0513C4.07016 15.5 10 15.5 10 15.5C10 15.5 15.9299 15.5 17.4087 15.0513C18.2246 14.8044 18.8672 14.1071 19.0853 13.1833C19.4815 11.5088 19.4815 8.01516 19.4815 8.01516C19.4815 8.01516 19.4815 4.52148 19.0853 2.84699ZM8.06061 11.1871V4.84316L13.0168 8.01523L8.06061 11.1871Z" fill="#949494"/>
</svg>
